<?xml version="1.0" encoding="utf-8"?>
<!-- Generator: Adobe Illustrator 26.4.1, SVG Export Plug-In . SVG Version: 6.00 Build 0)  -->
<svg version="1.1" id="Layer_1" xmlns="http://www.w3.org/2000/svg" xmlns:xlink="http://www.w3.org/1999/xlink" x="0px" y="0px"
	 viewBox="0 0 2048 2048" style="enable-background:new 0 0 2048 2048;" xml:space="preserve">
<style type="text/css">
	.st0{fill:#BDBDBD;}
	.st1{fill:#FFFCF8;}
	.st2{fill:#EB5757;}
</style>
<g>
	<rect x="0" y="0" class="st0" width="2048" height="2048"/>
</g>
<path class="st1" d="M1610.08,1363.24c-32.04-75.75-77.9-143.77-136.3-202.17c-58.4-58.4-126.42-104.26-202.17-136.3
	c-21.96-9.29-44.31-17.3-66.98-24.01c18.58-12.23,35.93-26.35,51.88-42.29c30.18-30.18,53.88-65.34,70.45-104.5
	c17.16-40.56,25.86-83.62,25.86-128s-8.7-87.43-25.86-128c-16.56-39.16-40.26-74.32-70.45-104.5
	c-30.18-30.18-65.34-53.88-104.5-70.45c-40.56-17.16-83.62-25.86-128-25.86s-87.43,8.7-128,25.86
	c-39.16,16.56-74.32,40.26-104.5,70.45c-30.18,30.18-53.88,65.34-70.45,104.5c-17.16,40.56-25.86,83.62-25.86,128
	s8.7,87.43,25.86,128c16.56,39.16,40.26,74.32,70.45,104.5c15.95,15.95,33.3,30.06,51.88,42.29c-22.67,6.72-45.02,14.72-66.98,24.01
	c-75.75,32.04-143.77,77.9-202.17,136.3c-58.4,58.4-104.26,126.42-136.3,202.17c-33.18,78.45-50,161.75-50,247.6
	c0,22.09,17.91,40,40,40s40-17.91,40-40c0-306.62,249.46-556.08,556.08-556.08s556.08,249.46,556.08,556.08c0,22.09,17.91,40,40,40
	s40-17.91,40-40C1660.08,1524.99,1643.26,1441.68,1610.08,1363.24z M775.2,725.96c0-137.19,111.61-248.8,248.8-248.8
	s248.8,111.61,248.8,248.8s-111.61,248.8-248.8,248.8S775.2,863.15,775.2,725.96z"/>
</svg>
